<svg width="570" height="77" viewBox="0 0 570 77" fill="none" xmlns="http://www.w3.org/2000/svg">
<path d="M269.056 31.784H273.152V36.52C275.712 32.7653 279.168 30.888 283.52 30.888C287.36 30.888 290.261 32.04 292.224 34.344C293.717 36.0933 294.464 38.76 294.464 42.344V65H290.368V43.24C290.368 40.168 289.835 38.0347 288.768 36.84C287.488 35.304 285.568 34.536 283.008 34.536C280.149 34.536 277.76 35.5173 275.84 37.48C274.048 39.272 273.152 41.9387 273.152 45.48V65H269.056V31.784ZM313.453 41.896H309.101C309.272 34.5573 313.688 30.888 322.35 30.888C330.499 30.888 334.573 34.216 334.573 40.872V59.496C334.573 61.1173 335.107 61.928 336.174 61.928C336.6 61.928 337.304 61.6507 338.285 61.096V64.68C336.963 65.1493 335.854 65.384 334.958 65.384C331.971 65.384 330.478 63.8693 330.478 60.84V60.072C327.918 63.9547 323.907 65.896 318.445 65.896C314.819 65.896 312.024 64.936 310.061 63.016C308.355 61.352 307.501 59.1333 307.501 56.36C307.501 53.3307 308.504 50.9413 310.509 49.192C312.045 47.8693 314.52 46.952 317.933 46.44L330.285 44.456C330.328 44.1573 330.35 43.8587 330.35 43.56C330.35 39.976 329.774 37.5867 328.622 36.392C327.512 35.1547 325.358 34.536 322.157 34.536C319.256 34.536 317.101 35.1333 315.693 36.328C314.328 37.48 313.581 39.336 313.453 41.896ZM330.478 47.72L318.637 49.896C314.115 50.664 311.853 52.776 311.853 56.232C311.853 58.152 312.515 59.688 313.837 60.84C315.16 61.9493 316.931 62.504 319.149 62.504C323.416 62.504 326.637 60.904 328.813 57.704C329.923 56.0827 330.478 54.0347 330.478 51.56V47.72ZM373.727 31.784H377.632V61.288C377.632 66.4507 376.543 70.1413 374.367 72.36C371.679 75.0907 367.861 76.456 362.911 76.456C358.943 76.456 355.807 75.56 353.503 73.768C351.455 72.1893 350.303 70.12 350.047 67.56H354.463C354.805 71.016 357.642 72.744 362.975 72.744C370.143 72.744 373.727 69.1173 373.727 61.864V58.856C370.698 62.6107 367.029 64.488 362.719 64.488C358.111 64.488 354.421 62.7387 351.647 59.24C349.258 56.168 348.063 52.3707 348.063 47.848C348.063 42.5573 349.642 38.2907 352.799 35.048C355.53 32.2747 358.901 30.888 362.911 30.888C367.477 30.888 371.082 32.808 373.727 36.648V31.784ZM363.103 34.536C359.989 34.536 357.386 35.752 355.295 38.184C353.375 40.488 352.415 43.6453 352.415 47.656C352.415 51.88 353.525 55.208 355.743 57.64C357.663 59.7307 360.117 60.776 363.103 60.776C366.517 60.776 369.205 59.432 371.167 56.744C372.874 54.3547 373.727 51.3253 373.727 47.656C373.727 43.6027 372.767 40.4453 370.847 38.184C368.757 35.752 366.175 34.536 363.103 34.536ZM406.23 30.888C411.136 30.888 414.998 32.7013 417.814 36.328C420.288 39.4853 421.526 43.5173 421.526 48.424C421.526 54.0133 419.947 58.4293 416.79 61.672C414.016 64.488 410.496 65.896 406.23 65.896C401.323 65.896 397.462 64.0827 394.646 60.456C392.171 57.2987 390.934 53.288 390.934 48.424C390.934 42.792 392.512 38.3547 395.67 35.112C398.443 32.296 401.963 30.888 406.23 30.888ZM406.23 34.536C402.688 34.536 399.915 35.9653 397.91 38.824C396.16 41.2987 395.286 44.4987 395.286 48.424C395.286 52.904 396.416 56.424 398.678 58.984C400.598 61.16 403.115 62.248 406.23 62.248C409.771 62.248 412.544 60.8187 414.55 57.96C416.299 55.4853 417.174 52.3067 417.174 48.424C417.174 43.944 416.043 40.424 413.782 37.864C411.819 35.6453 409.302 34.536 406.23 34.536ZM434.911 31.784H439.007L438.815 37.736C440.479 33.4693 443.636 31.336 448.287 31.336C448.628 31.336 449.183 31.3573 449.951 31.4L449.887 35.624C449.247 35.496 448.799 35.432 448.543 35.432C445.343 35.4747 442.868 36.712 441.119 39.144C439.711 41.1067 439.007 43.9013 439.007 47.528V65H434.911V31.784ZM461.469 31.784H465.565V36.52C468.125 32.7653 471.581 30.888 475.933 30.888C479.773 30.888 482.674 32.04 484.637 34.344C486.13 36.0933 486.877 38.76 486.877 42.344V65H482.781V43.24C482.781 40.168 482.247 38.0347 481.181 36.84C479.901 35.304 477.981 34.536 475.421 34.536C472.562 34.536 470.173 35.5173 468.253 37.48C466.461 39.272 465.565 41.9387 465.565 45.48V65H461.469V31.784ZM497.418 31.784H501.898L509.706 52.52C510.858 55.5067 511.69 58.152 512.202 60.456C512.629 58.408 513.503 55.72 514.826 52.392L522.506 31.784H526.858L512.202 69.352C511.178 71.9973 510.005 73.832 508.682 74.856C507.402 75.9227 505.695 76.456 503.562 76.456C501.941 76.456 500.575 76.264 499.466 75.88L500.49 72.168C501.429 72.5947 502.431 72.808 503.498 72.808C505.503 72.808 507.082 71.3787 508.234 68.52L510.026 64.104L497.418 31.784Z" fill="white"/>
<path d="M6.656 65L1.28 29.8H7.936L10.88 51.368C11.0507 52.6053 11.2 53.9707 11.328 55.464C11.4987 56.9573 11.6267 58.1947 11.712 59.176C11.84 58.1947 12.0107 56.9573 12.224 55.464C12.4373 53.9707 12.6293 52.6053 12.8 51.368L16.128 29.8H22.336L25.6 51.368C25.7707 52.6053 25.9627 53.992 26.176 55.528C26.3893 57.0213 26.56 58.2587 26.688 59.24C26.7733 58.216 26.9013 56.9573 27.072 55.464C27.2853 53.928 27.456 52.5627 27.584 51.368L30.72 29.8H37.12L31.616 65H23.36L20.288 43.304C20.1173 42.1093 19.9253 40.7867 19.712 39.336C19.4987 37.8427 19.328 36.6267 19.2 35.688C19.072 36.6267 18.9013 37.8427 18.688 39.336C18.5173 40.7867 18.3253 42.1093 18.112 43.304L14.912 65H6.656ZM56.231 65.64C52.6043 65.64 49.7457 64.68 47.655 62.76C45.5643 60.84 44.519 58.2587 44.519 55.016C44.519 51.56 45.671 48.8933 47.975 47.016C50.279 45.1387 53.543 44.2 57.767 44.2H66.535V41.192C66.535 39.4853 65.9803 38.1627 64.871 37.224C63.7617 36.2427 62.247 35.752 60.327 35.752C58.5777 35.752 57.127 36.136 55.975 36.904C54.823 37.672 54.1403 38.7173 53.927 40.04H46.119C46.503 36.712 47.9963 34.0667 50.599 32.104C53.2017 30.1413 56.5297 29.16 60.583 29.16C64.8923 29.16 68.2843 30.248 70.759 32.424C73.2763 34.5573 74.535 37.4587 74.535 41.128V65H66.791V58.856H65.511L66.791 57.128C66.791 59.7307 65.831 61.8 63.911 63.336C61.991 64.872 59.431 65.64 56.231 65.64ZM58.855 59.624C61.1163 59.624 62.951 59.048 64.359 57.896C65.8097 56.744 66.535 55.2507 66.535 53.416V49.128H57.895C56.2737 49.128 54.9723 49.5973 53.991 50.536C53.0097 51.4747 52.519 52.712 52.519 54.248C52.519 55.912 53.0737 57.2347 54.183 58.216C55.335 59.1547 56.8923 59.624 58.855 59.624ZM106.446 65C104.142 65 102.115 64.5307 100.366 63.592C98.6593 62.6533 97.3153 61.3307 96.334 59.624C95.3527 57.8747 94.862 55.8693 94.862 53.608V25.512H83.598V18.28H102.862V53.608C102.862 54.888 103.225 55.912 103.95 56.68C104.718 57.4053 105.742 57.768 107.022 57.768H117.646V65H106.446ZM142.069 65.64C139.082 65.64 136.48 65.064 134.261 63.912C132.042 62.76 130.314 61.16 129.077 59.112C127.882 57.0213 127.285 54.5893 127.285 51.816V42.984C127.285 40.2107 127.882 37.8 129.077 35.752C130.314 33.6613 132.042 32.04 134.261 30.888C136.48 29.736 139.082 29.16 142.069 29.16C145.013 29.16 147.573 29.736 149.749 30.888C151.968 32.04 153.674 33.6613 154.869 35.752C156.106 37.8 156.725 40.2107 156.725 42.984V49.32H135.029V51.816C135.029 54.2907 135.626 56.168 136.821 57.448C138.016 58.6853 139.786 59.304 142.133 59.304C143.925 59.304 145.376 59.0053 146.485 58.408C147.594 57.768 148.298 56.8507 148.597 55.656H156.469C155.872 58.6853 154.25 61.1173 151.605 62.952C149.002 64.744 145.824 65.64 142.069 65.64ZM148.981 44.84V42.92C148.981 40.488 148.405 38.632 147.253 37.352C146.101 36.0293 144.373 35.368 142.069 35.368C139.765 35.368 138.016 36.0293 136.821 37.352C135.626 38.6747 135.029 40.552 135.029 42.984V44.328L149.557 44.2L148.981 44.84ZM169.756 65V29.8H177.308V36.52H179.292L176.924 40.616C176.924 36.8187 177.777 33.96 179.484 32.04C181.191 30.12 183.708 29.16 187.036 29.16C190.833 29.16 193.82 30.3333 195.996 32.68C198.172 35.0267 199.26 38.2693 199.26 42.408V44.968H190.876V42.984C190.876 40.7227 190.279 38.9733 189.084 37.736C187.932 36.4987 186.332 35.88 184.284 35.88C182.193 35.88 180.572 36.4987 179.42 37.736C178.311 38.9733 177.756 40.7227 177.756 42.984V65H169.756ZM215.299 76.52L220.227 63.08L207.107 29.8H215.875L222.403 47.784C222.744 48.7653 223.086 49.96 223.427 51.368C223.768 52.7333 224.024 53.864 224.195 54.76C224.408 53.864 224.686 52.7333 225.027 51.368C225.368 49.96 225.71 48.7653 226.051 47.784L232.195 29.8H240.643L223.683 76.52H215.299Z" fill="white"/>
<path d="M533.818 69.3636C532.697 69.3636 531.735 68.9621 530.932 68.1591C530.129 67.3561 529.727 66.3939 529.727 65.2727C529.727 64.1515 530.129 63.1894 530.932 62.3864C531.735 61.5833 532.697 61.1818 533.818 61.1818C534.939 61.1818 535.902 61.5833 536.705 62.3864C537.508 63.1894 537.909 64.1515 537.909 65.2727C537.909 66.0152 537.72 66.697 537.341 67.3182C536.977 67.9394 536.485 68.4394 535.864 68.8182C535.258 69.1818 534.576 69.3636 533.818 69.3636Z" fill="#FF0101"/>
</svg>
